<svg xmlns="http://www.w3.org/2000/svg" xmlns:xlink="http://www.w3.org/1999/xlink" version="1.1" id="Layer_1" x="0px" y="0px" width="222px" height="256px" viewBox="0 0 222 256" enable-background="new 0 0 222 256" xml:space="preserve">
<g>
	<path fill="#FFFFFF" d="M19.399 122.447c3.048-10.037 19.355-8.334 34.42-3.834c15.064 4.5 63.01-3.836 63.01-3.836 s24.778-5.853 33.037-23.853c8.26-18 13.345-26.377 24.309-23.919c10.891 2.4 14 12.2 6.7 29.6 c-10.358 24.855-20.869 29.328-20.869 29.328s11.17 25.1 12.5 35.358c0 0 17.912-0.047 29 14.5 c8.346 10.9 11.5 17.5 11.5 17.476s9.775-1.86 8.9 5.587c-0.885 7.448-40.621 30.662-43.945 22.5 c-4.555-11.228-14.182-23.337-23.779-28.002c-9.6-4.665-10.314 0.498-8.396 10.796c1.92 10.3 12.5 21.6 11.6 29.1 c-0.883 7.432-25.667 21.251-38.482 22.425c-8.447 0.773-3.617-8.518-3.617-8.518s-8.625-10.56-12.637-25.639 c-4.013-15.079-2.725-27.791-2.725-27.791s-4.574-6.295-10.055-18.295c-5.479-12-6.984-21.708-6.984-21.708 s-20.781 0.948-41.648-5.552C20.384 141.6 15.5 135.4 19.4 122.447z"/>
	<path fill="#F1F1F2" d="M70.732 125.196c0 0 11.3 18.1 44.6 12.125c28.625-5.125 42.125-23.398 42.125-42.332L70.732 125.2 z"/>
	<path fill="#F1F1F2" d="M23.232 119.696c0 0-5.199 6.84-2.44 13.977s12.404 11 22.4 13.9 c17.363 5 41 5.1 41 5.127s0.229 7.8 6 19.271s11.5 21.5 11.5 21.5s-3.25 18.8 4 33.2 s11.658 20.2 11.7 20.25s-4.343 4.331-1.408 6.5s13.569-0.75 21.909-6c8.341-5.25 15.341-11.5 5.841-7s-24.873 12.5-23.687 9 s8.437-8 8.437-8s-5.888 3.704-11.092-1.5s-9.385-15.25-10.521-29.75s0.613-18.777 15.113-23.264s26.5-10.486 31.75-13.486 s-0.25-3-11.5 2.5s-25.699 8.973-34.336 4.723s-14.699-17.006-15.414-24.723c-0.952-10.276-5.465-8.25-14.962-9.5 s-32.529 1.953-50.091-12.773c0 0 1.873-1.975 2.484-4.451C31.055 124.6 30.4 118.2 23.2 119.696z"/>
	<path fill="#F1F1F2" d="M145.275 190.446c0 0 8.082-2.375 17 6.5s11.75 13 14.8 18.75s6 6.2 10.8 4.5 s21.287-10.861 25-14.574s-3-2.926-10.5 2.824c-6.173 4.732-15.775 5.475-17.75 3.5c-3.4-3.4-11.742-16.728-17.473-21.223 C156.174 182.2 145.3 186.9 145.3 190.446z"/>
	<path fill="#F1F1F2" d="M174.175 71.17c-6.79-1.997-12.067 3.653-7.318 8.403s9.146 3.2 10.1 6.6 s-3.856 18.055-10.944 27.426c-6.535 8.642-11.467 14.209-4.835 10.039c4.708-2.96 15.902-17.041 19.538-29.34 S185.679 74.6 174.2 71.17z"/>
	<g>
		<g>
			<g>
				<path fill="#D0D2D3" d="M34.59 115.842c4.94 8.9 1 21.315-7.473 26.511c-1.117 0.7 0.5 1.1 1.2 0.7 c9.043-5.545 13.311-18.524 8.027-27.989C36.026 114.4 34.2 115.1 34.6 115.842L34.59 115.842z"/>
			</g>
		</g>
		<g>
			<g>
				<path fill="#D0D2D3" d="M42.017 116.205c5.77 10.7 2.5 22.379-7.619 29.01c-1.088 0.7 0.6 0.8 1.2 0.5 c10.385-6.829 14.478-18.732 8.381-29.99C43.625 115.1 41.8 115.7 42 116.205L42.017 116.205z"/>
			</g>
		</g>
		<g>
			<g>
				<path fill="#D0D2D3" d="M50.767 118.955c3.451 11.033-2.055 20.312-9.084 28.486c-0.789 0.9 1.1 1.1 1.6 0.5 c7.267-8.449 12.974-18.137 9.416-29.514C52.436 117.6 50.5 118.1 50.8 118.955L50.767 118.955z"/>
			</g>
		</g>
		<g>
			<g>
				<path fill="#D0D2D3" d="M58.517 120.205c4.756 10.7 2.8 23.563-6.789 30.906c-0.825 0.6 1.1 0.5 1.5 0.2 c9.784-7.501 12.122-20.547 7.211-31.594C60.198 119.1 58.3 119.8 58.5 120.205L58.517 120.205z"/>
			</g>
		</g>
		<g>
			<g>
				<path fill="#D0D2D3" d="M70.525 153.672c9.411-9.261 8.487-23.145 2.923-34.234c-0.379-0.756-2.273-0.163-1.932 0.5 c5.369 10.7 6.6 24.241-2.577 33.266C68.1 154 70 154.2 70.5 153.672L70.525 153.672z"/>
			</g>
		</g>
		<g>
			<g>
				<path fill="#D0D2D3" d="M84.444 153.56c5.084-10.298 8.819-20.778 9.004-32.372c0.008-0.507-1.921-0.177-1.932 0.5 c-0.183 11.501-3.957 21.922-8.996 32.128C82.279 154.3 84.2 154.1 84.4 153.56L84.444 153.56z"/>
			</g>
		</g>
		<g>
			<g>
				<path fill="#D0D2D3" d="M160.543 125.058c-9.943-3.064-18.193-9.881-24.175-18.282c-0.497-0.697-2.342 0.041-1.771 0.8 c6.127 8.6 14.6 15.6 24.8 18.718C160.229 126.6 161.7 125.4 160.5 125.058L160.543 125.058z"/>
			</g>
		</g>
		<g>
			<g>
				<path fill="#D0D2D3" d="M139.517 97.705c4.477 10.4 17.8 18.3 28.4 20.982c0.996 0.3 1.912-1.162 0.648-1.482 c-9.903-2.513-22.908-10.282-27.108-20.018C141.058 96.3 139.1 96.8 139.5 97.705L139.517 97.705z"/>
			</g>
		</g>
		<g>
			<g>
				<path fill="#D0D2D3" d="M144.767 88.955c4.491 11.3 17.8 18.1 29.4 19.154c0.894 0.1 1.998-1.201 0.689-1.325 c-11.024-1.049-23.847-7.589-28.129-18.346C146.371 87.6 144.5 88.2 144.8 88.955L144.767 88.955z"/>
			</g>
		</g>
		<g>
			<g>
				<path fill="#D0D2D3" d="M151.254 76.769c0.071 12.3 15.9 22.3 27.1 22.387c1.107 0 1.479-1.404 0.17-1.419 c-10.326-0.116-25.291-9.825-25.356-21.113C153.205 75.6 151.2 75.9 151.3 76.769L151.254 76.769z"/>
			</g>
		</g>
		<g>
			<g>
				<path fill="#D0D2D3" d="M158.767 72.955c0.609 9.2 17.9 20.7 25.5 12.678c0.797-0.84-1.091-0.872-1.564-0.373 c-6.377 6.725-21.514-5.47-22.002-12.822C160.652 71.8 158.7 72.2 158.8 72.955L158.767 72.955z"/>
			</g>
		</g>
		<g>
			<g>
				<path fill="#D0D2D3" d="M83.353 156.228c15.129 1.4 30.394-1.382 44.754-6.066c6.503-2.122 12.821-5.049 18.577-8.739 c5.145-3.299 11.116-6.332 14.945-11.215c0.522-0.665-1.419-0.499-1.793-0.021c-3.704 4.722-9.471 7.357-14.342 10.7 c-5.792 3.968-12.561 6.695-19.207 8.863c-13.488 4.4-28 6.734-42.175 5.421C83.396 155.1 82.1 156.1 83.4 156.2 L83.353 156.228z"/>
			</g>
		</g>
		<g>
			<g>
				<path fill="#D0D2D3" d="M86.418 168.323c13.986 4.3 28.6 0.1 41.871-4.613c14.037-5.004 26.867-11.394 37.745-21.753 c0.866-0.824-1.017-1.081-1.604-0.521c-9.774 9.308-21.247 15.365-33.808 20.041c-13.554 5.045-28.691 10.066-43.077 5.6 C86.759 166.8 85.3 168 86.4 168.323L86.418 168.323z"/>
			</g>
		</g>
		<g>
			<g>
				<path fill="#D0D2D3" d="M92.626 182.417c14.816 1.8 30.854-2.754 44.989-6.916c6.431-1.894 12.64-4.453 18.362-7.955 c6.007-3.676 10.389-9.456 14.394-15.117c0.459-0.648-1.46-0.414-1.777 0.035c-3.646 5.155-7.51 10.087-12.621 13.9 c-5.844 4.333-13.263 6.781-20.156 8.811c-13.158 3.875-28.234 7.965-41.978 6.3 C93.315 181.4 91.6 182.3 92.6 182.417L92.626 182.417z"/>
			</g>
		</g>
		<g>
			<g>
				<path fill="#D0D2D3" d="M100.632 194.098c6.295-0.325 12.266-2.062 18.229-4.007c6.684-2.18 13.451-4.152 20.018-6.669 c6.237-2.392 12.308-5.347 18.089-8.69c2.906-1.682 5.611-3.68 8.19-5.821c2.51-2.083 4.188-5.326 7.238-6.7 c1.214-0.547 0.124-1.455-0.826-1.027c-4.104 1.85-6.717 6.277-10.251 9.021c-5.935 4.606-12.986 7.821-19.843 10.8 c-6.399 2.773-13.099 4.604-19.698 6.807c-6.843 2.283-13.682 4.618-20.944 4.993C99.782 192.8 99.3 194.2 100.6 194.1 L100.632 194.098z"/>
			</g>
		</g>
		<g>
			<g>
				<path fill="#D0D2D3" d="M146.104 192.283c-15.963 0.003-33.178-0.009-47.116 8.866c-0.826 0.5 1.1 0.3 1.5 0.1 c13.079-8.327 29.42-8.131 44.384-8.134C145.289 193.1 147.1 192.3 146.1 192.283L146.104 192.283z"/>
			</g>
		</g>
		<g>
			<g>
				<path fill="#D0D2D3" d="M149.644 191.51c5.874-13.243 16.502-22.731 29.993-27.833c1.253-0.474 0.125-1.313-0.809-0.961 c-13.864 5.243-24.962 15.037-31.007 28.667C147.404 192.3 149.3 192.2 149.6 191.51L149.644 191.51z"/>
			</g>
		</g>
		<g>
			<g>
				<path fill="#D0D2D3" d="M146.029 202.585c-14.941-3.702-35.177-1.317-46.168 10.447c-0.377 0.4 1.4 0.2 1.742-0.172 c10.328-11.055 28.758-13.04 42.832-9.553C144.868 203.4 146.5 202.7 146 202.585L146.029 202.585z"/>
			</g>
		</g>
		<g>
			<g>
				<path fill="#D0D2D3" d="M102.922 222.904c6.632-1.953 12.694-5.338 19.25-7.5c7.647-2.522 16.248-3.399 24.236-3.957 c1.121-0.078 1.461-1.594 0.148-1.502c-7.75 0.541-15.352 1.828-22.913 3.591c-7.35 1.714-13.875 5.825-21.101 8 C101.354 221.8 101.7 223.3 102.9 222.904L102.922 222.904z"/>
			</g>
		</g>
		<g>
			<g>
				<path fill="#D0D2D3" d="M158.648 195.278c7.184-12.501 16.396-22.688 29.497-29.067c1.194-0.581 0.117-1.488-0.826-1.029 c-13.5 6.574-23.093 17.037-30.503 29.933C156.3 196 158.3 196 158.6 195.278L158.648 195.278z"/>
			</g>
		</g>
		<g>
			<g>
				<path fill="#D0D2D3" d="M167.383 202.722c9.508-10.74 19.06-21.713 32.733-27.118c1.256-0.496 0.109-1.161-0.768-0.814 c-14.096 5.572-23.953 16.795-33.767 27.882C165.017 203.3 167 203.2 167.4 202.722L167.383 202.722z"/>
			</g>
		</g>
		<g>
			<g>
				<path fill="#D0D2D3" d="M109.36 237.339c13.078-8.438 26.467-15.218 42.022-17.49c1.02-0.148 1.521-1.498 0.201-1.305 c-16.089 2.35-29.945 9.278-43.478 18.01C107.002 237.3 108.6 237.8 109.4 237.339L109.36 237.339z"/>
			</g>
		</g>
		<g>
			<g>
				<path fill="#D0D2D3" d="M172.636 210.933c10.474-9.571 20.065-21.775 34.038-26.271c1.176-0.379 0.81-1.813-0.383-1.43 c-14.395 4.632-24.166 16.863-34.962 26.729C170.364 210.8 171.9 211.6 172.6 210.933L172.636 210.933z"/>
			</g>
		</g>
		<g>
			<g>
				<path fill="#D0D2D3" d="M115.799 246.861c13.432-6.175 26.11-14.098 40.275-18.572c1.109-0.351 0.942-1.041-0.184-0.686 c-14.505 4.582-27.472 12.604-41.225 18.928C113.5 247.1 115.3 247.1 115.8 246.861L115.799 246.861z"/>
			</g>
		</g>
		<g>
			<g>
				<path fill="#D0D2D3" d="M212.104 192.801c-11.783 8.704-24.265 16.358-36.75 24c-1.116 0.7 0.5 1.2 1.3 0.8 c12.484-7.643 24.966-15.297 36.75-24C214.418 192.8 212.8 192.3 212.1 192.801L212.104 192.801z"/>
			</g>
		</g>
	</g>
	<path fill="#FFFFFF" d="M25.004 119.146c0 0-4.287-10.242-9.461-10.676c-5.173-0.435-4.217 5 0 7.5 c4.225 2.483-0.771 5.053-3.982 3.86c-3.213-1.192-5.994-5.544-9.5-1.866c-3.505 3.7 5.1 7.4 7.6 7.1 c0 0-2.31 1.061-5.898 0.74c-3.59-0.318-5.517 4.354-1.458 5.86c4.058 1.5 9.455-1.107 9.455-1.107s-2.161 2.113-4.288 3.1 c-2.128 0.975-3.445 4.5 0.3 5.907c3.72 1.4 8.154-4.86 8.154-4.86s3.802 1.5 7.996-1.414 C30.796 128.6 25.5 120.3 25 119.146z"/>
	<path fill="#FFFFFF" d="M167.21 68.098c0 0-1.751-10.964 2.539-14.069c4.288-3.105 6.4 2 4 6.4 c-2.36 4.3 3.4 3.9 5.6 1.172c2.169-2.713 2.265-7.878 7.303-6.609c5.04 1.268-0.458 9.021-2.831 10.1 c0 0 2.589-0.322 5.554-2.492c2.967-2.17 7.2 0.8 4.4 4.205c-2.738 3.425-8.858 4.06-8.858 4.06s3.021 0.7 5.4 0.4 c2.383-0.297 5.4 2 2.9 5.162c-2.511 3.141-9.737 0.186-9.737 0.186s-2.523 3.277-7.749 3 C167.198 79.2 167.4 69.4 167.2 68.098z"/>
	<g>
		<circle fill="#FFFFFF" cx="98.1" cy="67" r="66.7"/>
		<circle fill="#00001C" cx="104.1" cy="67" r="57.1"/>
		<path fill="#FFFFFF" d="M31.453 62.007c0 0-6.69 5.336-3.258 16.767s10.182 31.4 15.9 31.389s12.533-1.958 12.533-5.958 s-5.119-13.611-8.451-25.431S42.176 62.6 36.7 63.89S31.453 64.8 31.5 62.007z"/>
		<path fill="#D0D2D3" d="M38.823 66.489c-5.464 2.124-2.152 6.6 2.8 21.635s7.766 19.3 11.6 17.4 c3.767-1.879-4.364-15.864-7.064-25.016S42.051 65.2 38.8 66.489z"/>
		<path fill="#FFFFFF" d="M145.853 20.472c0 0 11.457-2.587 15.4 1.322c3.908 3.9 10.7 28 12.7 34 c2 5.958-6.646 7.495-9.199 7.495c-2.551 0-3.459-5.537-3.459-5.537s-3.489-12-7.29-20 C150.126 29.7 145.9 20.5 145.9 20.472z"/>
		<path fill="#D0D2D3" d="M156.751 21.958c-5.465 2.124-1.145 6.6 3.8 21.635c4.948 15 6.2 18.4 9.3 15.3 c2.305-2.304-1.957-12.733-4.656-21.885C162.508 27.9 160 20.7 156.8 21.958z"/>
		<linearGradient id="SVGID_1_" gradientUnits="userSpaceOnUse" x1="153.8" y1="19.8" x2="119.4" y2="53.8">
			<stop offset="0" style="stop-color:#FFFFFF"/>
			<stop offset="1" style="stop-color:#FFFFFF;stop-opacity:0"/>
		</linearGradient>
		<path fill="url(#SVGID_1_)" d="M83.482 27.245c-3.402-11.323 35.955-16.971 56.9 7.8 c16.947 20 11.1 52.4 4.5 59.019s-15.057-26.262-28.529-39.734C102.869 40.9 86.1 36.1 83.5 27.245z"/>
		<path fill="#F1F1F2" d="M99.732 2.979c2.188-2.188-26.27-0.078-37.674 8.57S37.826 38.2 40.5 40.9 s11.001-16.774 23.756-24.677S92.85 9.9 99.7 2.979z"/>
	</g>
	<path fill="#F1F1F2" d="M186.107 55.464c-0.67-0.071 1.4 1.3 0.3 3.953s-2.942 5.42-2.942 5.42s1.838-0.716 3.264-3.813 S188.743 55.7 186.1 55.464z"/>
	<path fill="#F1F1F2" d="M184.995 70c0 0 3.642-1.075 5.561-2.994s1.19-3.765 2.303-3.765s1.335 1.1 0.3 3.1 S187.378 70.6 185 70z"/>
	<path fill="#F1F1F2" d="M184.28 75.48c0 0 3.4 0.5 5.1 0.477s2.525-2.542 3.605-2.542s0.716 2.924-1.985 3.4 S185.591 76.8 184.3 75.48z"/>
	<path fill="#F1F1F2" d="M171.607 71.35c0 0 4.5 0.1 6.4 2.065s4.052-1.351 2.304-4.687s-1.826-3.892-1.826-3.892 s-0.794 3.1 0 5.248S174.424 69.4 171.6 71.35z"/>
	<path fill="#F1F1F2" d="M13.336 109.736c0 0-1.399 1.7 0.4 3.99s2.894 2 3.9 3.031s-0.146-3.274-2.419-4.776 S14.4 109.7 13.3 109.736z"/>
	<path fill="#F1F1F2" d="M2.032 119.946c-0.246 0.9 1.1 2.3 3.7 3.257s4.572 1.4 4.6 1.413s-1.413-1.095-3.325-2.335 s-3.658-2.106-3.325-3.585C3.611 118.7 2.4 118.7 2 119.946z"/>
	<path fill="#F1F1F2" d="M0.868 128.605c0 0 0 2.5 3.4 2.909s7.315-1.455 7.315-1.455s-2.689 0.598-5.459 0 S2.24 130 0.9 128.605z"/>
	<path fill="#F1F1F2" d="M15.425 134.092c0 0-1.424 2.387-3.502 3.479s-3.975 1.719-5.694 0 C6.229 137.6 9.9 138.3 15.4 134.092z"/>
	<path fill="#F1F1F2" d="M23.976 125.862c0 0-3.745 0.058-5.945 4.227c0 0-2.284 0.595-1.868-3.062s-0.051-4.156-0.051-4.156 s2.318 1.9 2.3 3.627S21.814 123.7 24 125.862z"/>
</g>
</svg>
