<!DOCTYPE svg PUBLIC "-//W3C//DTD SVG 1.1//EN" "http://www.w3.org/Graphics/SVG/1.1/DTD/svg11.dtd">
<svg version="1.1" id="Layer_1" xmlns="http://www.w3.org/2000/svg" xmlns:xlink="http://www.w3.org/1999/xlink" x="0px" y="0px"
	 width="155px" height="155px" viewBox="0 0 155 155" enable-background="new 0 0 155 155" xml:space="preserve">
<path fill="#263D8A" d="M53.73,9.671C9.559,26.5-6.243,78.579,32.695,126.689c34.494,42.618,128.185,20.467,114.934-57.604
C140.219,25.429,108.85-10.636,53.73,9.671">
		 <animate dur="700ms" begin="0" repeatCount="indefinite" attributeName="d"
             values="M53.73,9.671C9.559,26.5-6.243,78.579,32.695,126.689c34.494,42.618,128.185,20.467,114.934-57.604
             C140.219,25.429,108.85-10.636,53.73,9.671;

             M71.23,5.267c-50.742,5.18-78.719,53.57-49.468,108.112c23.796,44.371,121.248,51.849,125.646-27.217
             C149.559,47.5,129.669-0.698,71.23,5.267;

             M38.067,18.149C-0.691,44.5-3.159,99.67,46.396,136.752c43.899,32.849,125.413-13.002,97.281-84.051
             C127.375,11.53,86.518-15.064,38.067,18.149;"/>
</path>
<g>
	<path fill="#263D8A" d="M6.719,82.402C1.459,60.378,8.881,35.395,25.855,20.06c1.473-1.33-0.706-3.495-2.171-2.172
		C5.893,33.961-1.748,60.164,3.758,83.217C4.219,85.144,7.18,84.327,6.719,82.402"/>
	<path fill="#263D8A" d="M9.086,91.575c-0.313-0.964-0.626-1.926-0.939-2.89c-0.258-0.795-1.054-1.301-1.889-1.071
		c-0.778,0.214-1.331,1.092-1.072,1.888c0.312,0.963,0.626,1.928,0.939,2.889c0.258,0.795,1.054,1.304,1.889,1.074
		C8.792,93.25,9.344,92.371,9.086,91.575"/>
	<path fill="#263D8A" d="M61.029,149.455c-23.059-7.532-42.66-27.807-49.363-51.32c-0.542-1.902-3.506-1.094-2.961,0.815
		c7.003,24.569,27.412,45.596,51.508,53.466C62.101,153.033,62.903,150.066,61.029,149.455"/>
	<path fill="#263D8A" d="M151.798,62.732c-3.727-21.195-14.909-45.645-34.636-56.725c-1.729-0.97-3.275,1.683-1.549,2.652
		c19.059,10.705,29.633,34.468,33.224,54.89C149.18,65.498,152.139,64.669,151.798,62.732"/>
	<path fill="#263D8A" d="M150.487,68.411v3.412c0,1.98,3.071,1.98,3.071,0v-3.412C153.559,66.431,150.487,66.431,150.487,68.411"/>
</g>
</svg>
