<?xml version="1.0" encoding="utf-8"?>
<!-- Generator: Adobe Illustrator 16.0.0, SVG Export Plug-In . SVG Version: 6.00 Build 0)  -->
<!DOCTYPE svg PUBLIC "-//W3C//DTD SVG 1.1//EN" "http://www.w3.org/Graphics/SVG/1.1/DTD/svg11.dtd">
<svg version="1.1" id="Layer_1" xmlns="http://www.w3.org/2000/svg" xmlns:xlink="http://www.w3.org/1999/xlink" x="0px" y="0px"
	 width="392.663px" height="255px" viewBox="0 0 392.663 255" enable-background="new 0 0 392.663 255" xml:space="preserve">
<path fill="#FCC515" d="M389.158,41.268C385.737,9.601,369.22,0.95,345.657,0.95c-23.564,0-80.312,0.925-134.302,0.925
	c-46.501,0-130.952-5.271-145.122,9.353c-3.947,4.073-6.003,12.197-6.919,22.692c-12.759-0.288-36.009,1.618-55.651,16.527
	c-2.55,1.935-2.373,5.042,5.201,3.574c13.484-2.615,34.917-5.299,49.862-0.013c0.304,25.544,3.514,56.839,3.514,80.171
	c0,41.545-11.236,106.192,12.879,114.507c34.89,12.03,172.098,0.069,215.775,0.069c43.679,0,94.035,4.343,95.8-20.233
	C388.457,203.946,392.581,72.935,389.158,41.268z"/>
</svg>
