<svg version="1.1" id="Layer_1" xmlns="http://www.w3.org/2000/svg" xmlns:xlink="http://www.w3.org/1999/xlink" x="0px" y="0px"
	 width="155px" height="155px" viewBox="0 0 155 155" enable-background="new 0 0 155 155" xml:space="preserve">
<path fill="#18B0BC" d="M103.822,141.427c46.329-15.213,62.842-71.079,20.977-114.704C84.418-15.356-2.32,15.133,9.964,86.89
                        	C17.454,130.638,57.402,156.671,103.822,141.427">
	 <animate dur="700ms" begin="0" repeatCount="indefinite" attributeName="d"
               values="M103.822,141.427c46.329-15.213,62.842-71.079,20.977-114.704C84.418-15.356-2.32,15.133,9.964,86.89
                       	C17.454,130.638,57.402,156.671,103.822,141.427;

M79.07,146.319c48.708,2.326,84.073-43.966,60.537-99.661C116.906-7.062,25-9.541,10.862,61.874
	C2.243,105.413,30.266,143.99,79.07,146.319;

	M51.374,140.944c43.771,21.492,94.623-6.932,95.16-67.393c0.518-58.317-77.216-95.773-124.188-37.207
  	C-4.012,69.208,7.516,119.41,51.374,140.944;" />
</path>
<g>
	<path fill="#18B0BC" d="M93.358,2.9C69.782-1.034,46.23,3.567,27.305,18.81C15.947,27.958,6.908,41.776,3.923,56.208
		c-0.39,1.888,2.501,2.692,2.893,0.798c2.587-12.513,9.974-24.476,19.165-33.147C43.835,7.014,68.975,1.858,92.562,5.793
		C94.453,6.108,95.264,3.218,93.358,2.9"/>
	<path fill="#18B0BC" d="M101.767,4.38c-1.048-0.247-2.097-0.494-3.146-0.74c-1.879-0.443-2.679,2.449-0.795,2.892
		c1.047,0.247,2.094,0.494,3.144,0.741C102.851,7.715,103.649,4.823,101.767,4.38"/>
	<path fill="#18B0BC" d="M57.022,145.55c-14.8-4.01-30.492-13.17-38.424-26.859c-0.969-1.674-3.562-0.164-2.591,1.512
		c8.318,14.357,24.665,24.027,40.217,28.24C58.094,148.948,58.887,146.055,57.022,145.55"/>
	<path fill="#18B0BC" d="M63.674,147.505h-2.712c-1.934,0-1.934,3,0,3h2.712C65.609,150.505,65.609,147.505,63.674,147.505"/>
	<path fill="#18B0BC" d="M82.257,149.186c-4.359,0.651-9.794,1.465-14.117,0c-1.837-0.623-2.619,2.274-0.798,2.894
		c4.852,1.643,10.818,0.73,15.712,0C84.962,151.792,84.148,148.902,82.257,149.186"/>
</g>
</svg>