<svg version="1.1" id="Layer_1" xmlns="http://www.w3.org/2000/svg" xmlns:xlink="http://www.w3.org/1999/xlink" x="0px" y="0px"
	 width="155px" height="155px" viewBox="0 0 155 155" enable-background="new 0 0 155 155" xml:space="preserve">
<path fill="#F37B21" d="M64.473,10.845C14.48,22.567-9.353,67.459,21.452,121.621
c27.286,47.981,129.25,35.065,129.25-34.952C150.702,35.155,115.287,1.854,64.473,10.845">
		 <animate dur="700ms" begin="0" repeatCount="indefinite" attributeName="d"
        values="M64.473,10.845C14.48,22.567-9.353,67.459,21.452,121.621
        c27.286,47.981,129.25,35.065,129.25-34.952C150.702,35.155,115.287,1.854,64.473,10.845;

               M133.629,34.521c30.701,38.376,22.217,97.35-25.992,111.845
               C31.126,169.369-4.475,95.401,13.111,50.423C32.436,1,99.646-3.973,133.629,34.521L133.629,34.521z;

               M85.3,9.551C34.056,6.28-2.781,37.981,11.17,100.643
               c11.995,53.879,114.312,73.462,134.679,6.472C160.491,58.951,137.487,12.955,85.3,9.551;"/>
</path>
<g>
	<path fill="#F37B21" d="M99.127,4.242C94.209,2.63,88.712,2.426,83.574,2.75c-1.979,0.125-1.992,3.217,0,3.092
		c4.883-0.309,10.06-0.15,14.731,1.381C100.205,7.847,101.013,4.86,99.127,4.242"/>
	<path fill="#F37B21" d="M106.639,6.293c-0.639-0.288-1.278-0.576-1.917-0.865c-0.769-0.346-1.656-0.228-2.115,0.556
		c-0.393,0.669-0.213,1.769,0.554,2.114c0.64,0.289,1.278,0.576,1.918,0.865c0.768,0.346,1.656,0.229,2.115-0.555
		C107.584,7.74,107.407,6.64,106.639,6.293"/>
	<path fill="#F37B21" d="M153.113,49.76c-7.138-17.775-21.844-34.837-40.646-40.861c-1.904-0.609-2.712,2.375-0.821,2.981
		c17.7,5.671,31.771,21.981,38.487,38.701C150.866,52.406,153.857,51.611,153.113,49.76"/>
	<path fill="#F37B21" d="M5.867,76.839v-1.718c0-1.994-3.092-1.994-3.092,0v1.718C2.775,78.832,5.867,78.832,5.867,76.839"/>
	<path fill="#F37B21" d="M38.83,144.614c-15.613-8.313-26.631-21.688-31.153-38.82C5.783,98.625,4.9,88.883,5.812,82.439
		c0.275-1.949-2.703-2.789-2.981-0.821c-3.784,26.765,10.982,53.176,34.438,65.665C39.029,148.221,40.59,145.552,38.83,144.614"/>
</g>
</svg>
