<?xml version="1.0" encoding="utf-8"?>
<!-- Generator: Adobe Illustrator 19.2.0, SVG Export Plug-In . SVG Version: 6.00 Build 0)  -->
<svg version="1.1" id="Layer_1" xmlns="http://www.w3.org/2000/svg" xmlns:xlink="http://www.w3.org/1999/xlink" x="0px" y="0px"
	 viewBox="0 0 316 342" style="enable-background:new 0 0 316 342;" xml:space="preserve">
<style type="text/css">
	.st0{fill:#50B19B;}
</style>
<path class="st0" d="M314,257.7c0-48.4,0-211,0-218.1c0-11.6-5.3-22-25.3-22c-46.5,0-43.6-0.7-115.6-0.7c-39.1,0-83,0.4-114.9,0.5
	c-3.3-10,6.5-20-4-15.5c-8.5,3.6-10.9,11.5-11.6,15.5c-11.9-0.1-31.4-2.4-37.1,8.9c-5.9,11.8-3.9,182.5-3.9,232.2
	c0,49.7-1.6,74.6,19,79.1c21.8,4.7,118.4,3,165.8,3c47.4,0,113.6,3.2,122.2-5.6C317.3,326.4,314,306.1,314,257.7z"/>
</svg>
