<?xml version="1.0" encoding="utf-8"?>
<!-- Generator: Adobe Illustrator 19.2.0, SVG Export Plug-In . SVG Version: 6.00 Build 0)  -->
<svg version="1.1" id="Layer_1" xmlns="http://www.w3.org/2000/svg" xmlns:xlink="http://www.w3.org/1999/xlink" x="0px" y="0px"
	 viewBox="0 0 570 338" style="enable-background:new 0 0 570 338;" xml:space="preserve">
<style type="text/css">
	.st0{fill:#50B19B;}
</style>
<path class="st0" d="M567.7,192.5c0-83.7,0-139.9,0-152.1c0-20-9.2-38-43.8-38c-80.3,0-75.3-1.2-199.7-1.2
	c-78.9,0-169.4,0.9-224.5,0.9c-20.4,0-55.1-4.4-65,15.4c-2.5,5.1-4.2,13.2-5.3,23.8c-7.1,1.2-20.3,5.5-26.4,19.9
	c-7.4,17.5,8.2,2.4,24.8,6.4c-1,32.6,0.1,76.9,0.1,126.4c0,85.8-2.8,128.9,32.8,136.6c37.6,8.2,204.5,5.2,286.4,5.2
	s196.3,5.4,211.2-9.6C573.4,311.2,567.7,276.2,567.7,192.5z"/>
</svg>
