<svg version="1.1" id="Layer_1" xmlns="http://www.w3.org/2000/svg" xmlns:xlink="http://www.w3.org/1999/xlink" x="0px" y="0px"
	 width="155px" height="155px" viewBox="0 0 155 155" enable-background="new 0 0 155 155" xml:space="preserve">
<path fill="#F0532A" d="M35.847,130.478c38.614,31.491,100.704,10.994,108.873-40.459
c7.106-44.763-41.896-103.346-105.565-68.042C2.319,42.402-8.624,94.212,35.847,130.478">
	 <animate dur="700ms" begin="0" repeatCount="indefinite" attributeName="d"
           values="M35.847,130.478c38.614,31.491,100.704,10.994,108.873-40.459
           c7.106-44.763-41.896-103.346-105.565-68.042C2.319,42.402-8.624,94.212,35.847,130.478;

                   M20.965,115.214c27.122,41.799,88.135,38.805,116.031-5.193
                   c24.938-39.334-8.252-111.208-79.672-97.088C16.004,21.103-10.27,67.077,20.965,115.214;

                   M9.377,87.683c6.854,49.354,65.232,75.197,107.298,44.466
                   c43.96-32.114,34.747-111.516-31.022-121.701C52.312,5.284,1.483,30.847,9.377,87.683;"/>
</path>
<g>
	<path fill="#F0532A" d="M150.959,52.862c-8.66-24.576-31.33-44.621-58.133-46.055c-1.934-0.104-1.924,2.896,0,3
		c25.398,1.357,47.049,20.604,55.24,43.852C148.705,55.472,151.604,54.692,150.959,52.862"/>
	<path fill="#F0532A" d="M22.432,130.849c0.444,0.465,0.889,0.93,1.334,1.395c0.565,0.591,1.553,0.568,2.121,0
		c0.587-0.588,0.565-1.531,0-2.121c-0.444-0.465-0.889-0.93-1.334-1.395c-0.565-0.591-1.553-0.568-2.121,0
		C21.845,129.315,21.867,130.259,22.432,130.849"/>
	<path fill="#F0532A" d="M153.938,60.81c-0.443-1.598-0.889-3.195-1.332-4.793c-0.518-1.861-3.412-1.07-2.893,0.797
		c0.443,1.598,0.889,3.197,1.332,4.795C151.562,63.47,154.457,62.679,153.938,60.81"/>
	<path fill="#F0532A" d="M3.938,86.46c-0.272-1.908-3.163-1.094-2.893,0.799c2.126,14.904,9.056,30.123,19.536,40.924
		c1.349,1.391,3.468-0.734,2.121-2.121C12.561,115.608,5.995,100.876,3.938,86.46"/>
	<path fill="#F0532A" d="M51.558,145.521c-7.917-2.645-16.011-6.555-22.338-12.127c-1.446-1.273-3.576,0.84-2.121,2.121
		c6.739,5.936,15.209,10.076,23.661,12.898C52.6,149.028,53.383,146.13,51.558,145.521"/>
</g>
</svg>
