<?xml version="1.0" encoding="utf-8"?>
<!-- Generator: Adobe Illustrator 19.2.0, SVG Export Plug-In . SVG Version: 6.00 Build 0)  -->
<svg version="1.1" id="Layer_1" xmlns="http://www.w3.org/2000/svg" xmlns:xlink="http://www.w3.org/1999/xlink" x="0px" y="0px"
	 viewBox="0 0 232 149" style="enable-background:new 0 0 232 149;" xml:space="preserve">
<style type="text/css">
	.st0{fill:#FFFFFF;}
	.st1{fill:#F6B45D;}
	.st2{fill:#D91F5D;}
</style>
<g>
	<g>
		<path class="st0" d="M229.6,118c0.7-0.8,1.2-1.8,1.4-2.9c0.3-1.8-0.3-3.6-1.4-4.8c1-0.8,1.7-2,1.9-3.4c0.5-3.1-1.6-6-4.7-6.5
			c-0.3-0.1-0.6-0.1-1-0.1c0.5-7-4.5-13.3-11.5-14.5c-7.5-1.2-14.6,3.9-15.8,11.4c0,0.3-0.1,0.6-0.1,0.8c-4.2,1-7.6,4.4-8.4,9
			c-1,6,3.1,11.7,9.1,12.7c3.6,0.6,7-0.6,9.5-2.9c1.2,1.9,3.2,3.4,5.6,3.8c2.7,0.5,5.4-0.5,7.2-2.4c0.6,0.6,1.4,1.1,2.3,1.4
			c-0.1,0.2-0.1,0.3-0.1,0.5c-0.3,2,1,3.9,3,4.2c2,0.3,3.9-1,4.2-3C230.9,120,230.5,118.8,229.6,118z"/>
		<path class="st1" d="M145.3,1.3c-48.5-6.5-108,38-79.1,103.1c31.6,71.1,139.8,48.1,144.6-12.7C214.7,41.9,197.6,8.3,145.3,1.3z"/>
		<path class="st2" d="M142,0.7c-16-1.2-28.5,4.4-30,13.6c-1.5,9.2,9.9,10.3,21.1,7c19.6-5.9,27.6,8.8,18.3,18.1
			c-9.3,9.3-2.8,31.4,17.4,20.6c10.4-5.6,2.2-18.2,7.5-26.6c5.3-8.4,25.7,7.2,21.3,29.7c-4.5,22.5,11.9,21.8,12.2,15.5
			c0,0,8-25.1-14.8-53.6C177,2.5,142,0.7,142,0.7z"/>
		<path class="st2" d="M73.7,28.3c8.9-9.1,22.4-8.3,23.2,4.7c0.5,8.4-28.2-0.1-26.1,19.1c0.5,4.6,6.8,5.4,10.2,8.9
			c5,5.2,8,19.2-3.2,24.3c-19.3,8.9-12.9,31.2,5.7,43.9c0,0-23.5-13.5-25.1-51.9C56.9,42.9,73.7,28.3,73.7,28.3z"/>
		<path class="st0" d="M96.5,111c5.2,9.6-3.1,20.4-14.4,17.4c-11.4-3.1-9.2-15.1-9.2-15.1s-5.2,24.5-27.8,19.1
			c-18.8-4.6-13.6-23.7-13.6-23.7s-11.9,11.1-23.1,0c-11.3-11.3,1.6-24.5,1.6-24.5C1.7,81.8-4.1,68.7,5.4,59.2
			C17.1,47.5,30,56.6,30,56.6c-6-6-2.1-22,14.1-26.1c6.7-1.7,11.2,0.3,14.2,3.2c2.4-4.9,7.8-10.2,19.2-8.5c0,0-8.8,6.6-13.9,18.6
			c0,0.1,0,0.1,0,0.1c-5.6,15.4-5.4,29.6-5.4,29.6c-2.3,2.3-4.6,1.2-4.6,1.2c6.2,6.2-1.5,9.5-1.5,9.5c3.2,0.6,3.8,3.4,3.9,5.1
			c0.4-3.2,2.3-10.1,11.5-10.1c12,0,11,11.7,11,11.7s6-7.4,14.8-3.6c3.3,1.4,7.5,7.5,4.8,13.6c0,0,5,1.2,4.4,6.1
			C101.9,111.7,96.5,111,96.5,111z"/>
		<path class="st2" d="M177.4,105c-6.1-3.1-22.3-5.9-26.1,3.8c-3.8,9.8-12.5,14.1-1.6,24.9c6.9,6.9,23.9-0.1,30.7-6.9
			C187.1,120.1,187,109.8,177.4,105z"/>
	</g>
</g>
</svg>
