<svg xmlns="http://www.w3.org/2000/svg" xmlns:xlink="http://www.w3.org/1999/xlink" version="1.1" id="Layer_1" x="0px" y="0px" width="803px" height="485px" viewBox="0 0 803 485" enable-background="new 0 0 803 485" xml:space="preserve">
<g>
	<path fill="#FF7559" d="M4.916 104.497c-3.651 0-7.303-1.304-2.086-6.521S47.172 52.1 51.6 47.6 c4.434-4.434 11.868-7.693 21.6 2.087c9.781 9.8 13.8 16.2 21.1 18.519c7.304 2.3 19.401-3.092 28.2 5.7 c8.769 8.8 14.3 20.1 31.6 20.146s44.603-3.391 49 13.303c0 0-23.475 0-34.952 0c-11.477 0-27.909 14.606-19.562 33.9 s18.519 20.3 20.6 20.345s20.606-18.258 20.606-23.475s1.044-15.389 11.477-15.389s27.91-2.087 30.8 5.2 c2.869 7.3 1.8 24 1.8 27.648s-2.347 8.086-14.867 20.606c-12.52 12.52-47.211 45.907-49.82 51.1 c-2.608 5.2 2.1 30.778-8.085 30.778c0 0 0-9.91 0-15.91c0-5.999-6.782-6.261-11.738-6.261c-4.956 0-14.084-1.042-20.084 7.8 c-5.999 8.869-6.521 25.823-1.304 25.823s11.999 0 15.9 0c3.912 0 7.8 3.4 11 6.521s17.215 16.7 20.9 18.3 c3.651 1.6 9.128-0.781 16.4 2.869c7.303 3.7 11.2 10.4 21.4 10.434c10.173 0 18.4 2 26.9 10.4 c8.477 8.5 16.7 11.7 27.4 11.738s14.607 12.8 7.6 15.65c-7.043 2.869-9.39 11.999-9.39 18.5 c0 6.5 4.2 12.26-9.651 26.084c-13.824 13.824-46.689 41.472-46.689 51.644c0 10.2 0 42.8 0 42.8 s-20.345 1.825-20.345-16.693c0-18.521 0-78.249 0-87.64s-6-14.607-12.781-21.389s-14.867-11.217-14.867-22.691 c0-11.479-0.652-17.085 6.26-23.998c6.913-6.911-0.521-13.041-3.651-16.172c-3.13-3.13-14.607-19.303-22.693-19.303 s-28.17 2.088-32.865-2.607c-4.695-4.694-30.648-29.344-35.473-34.17c-4.826-4.824-6.261-8.605-6.261-27.387 s0.261-67.297 0.261-83.206c0-15.911-11.477-24.52-21.127-24.52C36.477 104.8 4.9 104.5 4.9 104.497z"/>
	<path fill="#FF7559" d="M183.723 66.548c0 0 14.3 0 22.4 0c8.112 0 12.2 0.5 25.147-12.438 c12.979-12.98 36.911-37.993 38.669-39.752c3.514-3.515 0.54-8.381-1.894-10.815c-2.434-2.433-7.436-4.733-10.546-1.622 c-3.11 3.11-47.051 46.51-53.811 53.27C196.973 62 183.7 56 183.7 66.548z"/>
	<path fill="#FF7559" d="M242.942 57.354c0 0-0.946-4.463 4.057-9.465s25.013-25.823 28.663-29.474s5.679-5.948 18.388-5.948 s20.01 0 23.5 0c3.515 0 7.6 1.1 13 6.489c5.408 5.4 12.3 10.4 10 12.708c-2.299 2.299-9.6 10.682-11.899 13 c-2.298 2.299-3.785 5.948-3.785 17.307c0 11.4 0.5 20.3 0.5 25.417c0 5.1 1.2 6.084-6.219 13.5 c-7.436 7.438-28.393 28.394-34.072 34.071c-5.678 5.679-26.5 8.652-26.5-12.979c0-21.633 0-38.128 0-48.674 C258.626 61.4 247.3 57.4 242.9 57.354z"/>
	<path fill="#FF7559" d="M312.708 120.089c0 0 9.7 0 13.8 0c4.056 0 11.9 0.5 11.9 9.734c0 0-6.219 0-12.844 0 C318.927 129.8 312.7 126.8 312.7 120.089z"/>
	<path fill="#FF7559" d="M341.014 179.308c-2.205 2.2 8.7 0.8 8.739-5.137c0-3.679 1.537-11.628-4.369-10.006 C339.478 165.8 344.9 175.4 341 179.308z"/>
	<path fill="#FF7559" d="M352.998 158.487c0 5.1 0 14.9 0 18.116c0 3.2 1.1 6.8 7.3 6.761s8.383 0.4 8.383-3.068 c0-3.422 0.81-8.559-2.705-12.074c-3.515-3.515-5.097-5.949-5.097-11.357s-2.228-6.52-4.652-6.204 C353.024 151.1 353 156.3 353 158.487z"/>
	<path fill="#FF7559" d="M401.67 142.871c0-3.854 6.49-7.504 6.49-9.734c0-2.232 0-6.287 0-6.287c3.245 0 5.9 1.6 5.9 7.1 c0 5.5 6.7 8.1 11.6 8.112c4.868 0 2.1 4.158-5.069 11.358c-7.2 7.199-13.386 10.532-23.931 10.5 c-10.546 0-12.168 3.055-18.658 9.544s-16.021 15.007-16.021 15.007c-2.433 0-6.287 0.407-6.287 4.26s0 11.4 0 11.4 c-10.14 0-11.762 3.041-11.762 7.706c0 4.664-0.609 14.6 4.7 14.602s7.403-2.939 16.833-12.37s9.735-9.329 15.21-9.329 c5.475 0 7.2 1.3 12.4 6.489c5.172 5.2 12 12 12 11.966c3.549-3.55 6.995-6.997 4.259-9.735 c-2.737-2.736-6.389-8.011-8.72-10.343c-2.333-2.33 0.1-4.766 2.433-2.434c2.333 2.3 11.6 11.6 15.2 15.2 c3.65 3.7 7.1 5.9 10.7 5.882c3.651 0 18.3 0 23.9 0c5.678 0 5.3 3.4 2.8 5.882s-6.692 6.692-10.14 10.1 c-3.448 3.448-5.882 3.854-10.142 3.854c-4.258 0-10.748 0-21.7 0c-10.951 0-12.269-5.171-16.628-9.531 c-4.361-4.36-5.882-5.68-10.546-5.68c-4.666 0-14.399 0-24.54 0c-10.14 0-10.445 1.927-12.979 4.5 c-2.536 2.535-16.023 16.631-21.092 21.701c-5.07 5.069-6.084 8.314-6.084 13.182s0 18.5 0 22.7 c0 4.3 7.1 11.4 11 15.211c3.854 3.9 9.1 10.7 16 10.748c6.895 0 24.3 0 34.1 0 c9.735 0 8.9 6.7 8.9 13.386c0 6.7 5.1 11.2 7.3 13.386c2.23 2.2 1.2 13 1.2 24.3 s-0.609 17.8 3 21.499c3.65 3.6 6.9 10.1 6.9 14.195c0 4.1 0 14.2 0 14.2 c39.953 0 38.128-17.442 38.128-23.932s3.854-12.979 10.343-19.469c6.488-6.488 8.721-9.938 8.721-19.064 c0-9.125 1.419-18.658 10.141-18.658c8.721 0 4.462-7.098 10.951-7.098c6.49 0 6.896-15.21 6.896-17.644 c0-2.435-3.245-5.477-0.608-8.113c2.636-2.636 0.203-7.098-5.07-7.098s-7.909-3.447-13.081-8.619s-34.78-34.781-34.78-34.781 l2.433-2.434c0 0 25.2 25.2 30.2 30.218c4.97 5 10.2 5.6 14 1.825s10.749-4.056 15.818-3.042 c5.07 1 7.301-3.649 7.301-3.649c-9.023-9.024-6.083-12.169-9.328-15.414s-9.634-4.563-12.371-7.301 c-2.738-2.738-11.054-7.198-7.505-10.749c3.551-3.55 9.7 2.6 12.8 5.679s5.881 6.3 11.6 6.287s18.659-1.42 26 0.6 c7.301 2 12.8 8.1 14.4 15.414c1.623 7.3 1 12.6 8.8 20.483c7.858 7.9 8.4 15.6 8.4 15.6 s3.65 0 3.65-5.679s-7.301-7.504 2.839-22.512s23.221-13.081 25.352-10.95c2.13 2.1 15.3 16.1 19.1 19.9 c3.752 3.8 0.2 14 3.2 19.672s15.819 16.4 15.8 16.427s-1.115-8.011-6.692-13.588 c-4.767-4.766-9.431-12.472-5.679-16.225c3.751-3.751 6.1 3.6 10.5 3.65c4.463 0 9.633-6.792 13.386-10.545 c3.753-3.752-5.172-10.647-8.518-13.994c-3.347-3.346-2.231-5.476 1.217-8.923c3.448-3.448 9.632-3.954 11.966-6.287 c2.332-2.332 9.43-8.417 16.427-15.414c6.997-6.996 3.752-10.85-1.217-15.818c-4.969-4.968-11.357-9.734-13.183-15.818 c-1.825-6.085 8.721-3.042 14.399-1.826c5.679 1.2 10.3 8.3 15 12.98c4.664 4.7 9.938-3.446 7.909-5.476 c-2.028-2.028-5.476-7.301-8.518-10.344c-3.042-3.042 6.49-9.734 11.965-12.979c5.476-3.245 6.287-12.979 6.287-19.672 s-0.202-15.413-2.027-19.874c-1.825-4.462-10.647-12.879-15.616-17.848s-6.489-14.805 1.014-22.309 c7.505-7.503 21.903-25.148 28.798-25.148c6.896 0 8.7 4.3 8.7 9.025s0 43.3 0 43.299s7.503 7.5 11 11 c3.448 3.4 8.315-0.812 8.315-6.896c0-6.083 0-47.658 0-75.038c0-27.378-9.938-26.161-26.365-26.161 c-16.427 0-83.962 0.202-83.962 0.202s0.609 3.854-4.867 12.777c-5.475 8.923-36.91 7.301-45.428 3.2 s-20.483-18.253-25.554-23.323s-11.763-5.881-11.763-5.881s1.825 15.413-2.028 22.714s-27.784 30.219-33.463 35.9 c-5.679 5.679-8.518 6.085-14.805 5.071c-6.287-1.015-19.672 15.818-24.337 20.482c-4.664 4.665-9.126 8.721-13.79 6.3 c-4.665-2.434-10.749-9.329-19.875-18.455c-9.127-9.127-23.323 0.405-26.567 3.649c-3.246 3.245-19.401 19.943-25.553 26.1 c-6.152 6.152-9.329 8.991-9.329 13.858s5.07 8.1 12 8.112c6.896 0 6.7 9.9 6.7 9.9 C394.776 161.7 401.7 158.3 401.7 142.871z"/>
	<path fill="#FF7559" d="M604.477 29.232c0 0 15.1 0 19.5 0c4.327 0 13.25-1.083 13.25-10.006c0 0-10.546 0-18.116 0 C611.507 19.2 604.5 21.1 604.5 29.232z"/>
	<path fill="#FF7559" d="M708.313 179.309c0 0 0 19.5 0 24.877c0 5.408-1.621 7.3-5.408 11.1 c-3.787 3.786-16.901 16.9-16.901 16.9s6.93 2.5 11.154-1.757c4.225-4.226 13.69-13.691 16.394-16.395 c2.704-2.704 5.037-7.133 5.037-15.785S718.59 179.3 708.3 179.309z"/>
	<path fill="#FF7559" d="M569.595 298.559c0 0 0 3.8 0 6.76c0 3 2.2 7 7.8 7.03c0 0 0-3.244 0-6.895 S573.65 298.6 569.6 298.559z"/>
	<path fill="#FF7559" d="M664.508 308.294c0 0 0 8.1 0 13.248s-1.623 11.357-11.087 11.357s-8.855-10.749-7.302-12.303 C647.674 319 653.7 308.3 664.5 308.294z"/>
	<path fill="#FF7559" d="M667.212 332.899c0 0 5.407-5.407 8.518-8.519c3.11-3.109 5.814-3.784 14.467-3.784s18.658 0 18.7 0 s-4.394 4.393-7.368 7.368c-2.975 2.975-8.045 4.935-18.861 4.935S667.212 332.9 667.2 332.899z"/>
	<path fill="#FF7559" d="M713.992 321.813c0 0-0.811 7.6 7.8 12.168s8.112 10.5 16.8 13.8 c8.652 3.2 11.6 1.4 11.6 1.352S751.309 316.9 714 321.813z"/>
	<path fill="#FF7559" d="M739.571 358.318c0 0-13.289 0-23.005 0c-9.715 0-14.581 0.54-23.505 9.5 c-8.925 8.925-13.792 11.899-23.256 11.899s-18.928 5.406-18.928 15.953c0 10.5 0 25.1 0 25.147s12.709 0 27.3 0 c14.602 0 18.386-1.354 27.3 7.573c8.925 8.9 11.4 15.1 20.3 15.141c8.923 0 24.201-17.17 28.934-21.903 c4.733-4.731 3.516-16.224 3.516-25.418c0-9.192-4.732-13.926-9.735-18.928C743.492 372.2 739.6 364.5 739.6 358.318z"/>
	<path fill="#FF7559" d="M795.926 427.542c0 0 0 5.2 0 12.039c0 3.314-3.509 7.409-5.693 9.6 c-7.571 7.571-30.15 30.15-30.15 30.15s11.627 3.8 20.415-5.002c8.79-8.789 16.191-17.747 18.929-20.483 c2.737-2.738 3.245-6.286 3.245-10.344C802.686 439.4 804 427.5 795.9 427.542z"/>
	<path fill="#FF7559" d="M670.214 272.979c0 0 0 7.5 0 9.625c0 2.2 3.1 3.1 3.1 6.341s-1.27 15.4 5.6 15.4 s10.522 0 10.5 0s0.906-10.703-4.354-10.703C679.828 293.7 689.8 273 670.2 272.979z"/>
	<path fill="#FF7559" d="M506.748 9.17c0 0-0.936 12.2 6.9 12.176s12.695-0.104 12.7 7.389c0 0 12.8 2.1 12.801-6.868 s-8.846-7.389-14.049-7.389S522.567 9.2 506.7 9.17z"/>
	<path fill="#FF7559" d="M383.908 49.058c0 0 7.724-7.724 9.826-9.826c2.102-2.103 9.257-5.701 17.3 2.3 c0 0-6.024 6.025-9.381 9.382C397.251 55.3 391.3 56.4 383.9 49.058z"/>
</g>
</svg>
