<?xml version="1.0" encoding="utf-8"?>
<!-- Generator: Adobe Illustrator 19.2.0, SVG Export Plug-In . SVG Version: 6.00 Build 0)  -->
<svg version="1.1" id="Layer_1" xmlns="http://www.w3.org/2000/svg" xmlns:xlink="http://www.w3.org/1999/xlink" x="0px" y="0px"
	 viewBox="0 0 156 143" style="enable-background:new 0 0 156 143;" xml:space="preserve">
<style type="text/css">
	.st0{fill:#C54642;}
	.st1{fill:#CEB656;}
</style>
<g>
	<g>
		<path class="st0" d="M42.4,10C-36,50.2,3.2,167.7,100.7,137.3C212.6,102.5,131.9-36,42.4,10z"/>
		<path class="st1" d="M82.1,17.2c-10.9,0-17.4,6.3-0.8,9.8c16.6,3.5,23.2,5.3,32.7,14.7c9.5,9.5,16-0.5,4.2-12.3
			C106.5,17.8,93.1,17.2,82.1,17.2z"/>
		<path class="st1" d="M120.6,87.2c-5.8-1.1-17.4,2.5-11.6,6c5.8,3.5,14.8,3.5,17.9,10.3c3.1,6.8,10.8,9.2,12.5,4.6
			C141.1,103.5,131.5,89.2,120.6,87.2z"/>
		<path class="st1" d="M23.8,42.3c-12.3,2-20.5,10.1-14.4,14.8c6.1,4.7,8.7-0.7,16.2-0.3c7.5,0.4,17.8-1.7,15.1-8.8
			C39.3,44.3,32.5,40.9,23.8,42.3z"/>
		<path class="st1" d="M40.4,106.6c-8.3,0-18.6,6.8-10.8,12.3c7.9,5.5,14.7-1.3,23.4,1.8c8.7,3.2,13.8-1.3,8.1-8.1
			C56.2,106.6,51.2,106.6,40.4,106.6z"/>
	</g>
</g>
</svg>
