<?xml version="1.0" encoding="utf-8"?>
<!-- Generator: Adobe Illustrator 19.2.0, SVG Export Plug-In . SVG Version: 6.00 Build 0)  -->
<svg version="1.1" id="Layer_1" xmlns="http://www.w3.org/2000/svg" xmlns:xlink="http://www.w3.org/1999/xlink" x="0px" y="0px"
	 viewBox="0 0 214 150" style="enable-background:new 0 0 214 150;" xml:space="preserve">
<style type="text/css">
	.st0{fill:#8659A5;}
	.st1{fill:#A0A2D1;}
	.st2{fill:#D91F5D;}
	.st3{fill:#7ABCD6;}
</style>
<g>
	<g>
		<path class="st0" d="M9.5,65.1C-7.2,72.9,1.1,97,19.9,89.5C39,81.8,25.9,57.6,9.5,65.1z"/>
		<path class="st1" d="M27.5,87.3c-11.7-48.2,24.9-98,98.7-84.8c76.7,13.7,64.3,137.6,1.8,145.6C76.8,154.8,40.2,139.4,27.5,87.3z"
			/>
		<path class="st2" d="M131.2,12.2c-14.4-6.4-35.5,0.7-21.2,11.3c14.3,10.6,25.6,14.3,32.6,11C149.5,31.2,141.1,16.6,131.2,12.2z"/>
		<path class="st2" d="M58.8,30.8c-12,5.6-21.6,18.3-19.8,27.4c1.8,9.1,8,5.9,22.3-8.4C75.6,35.6,66.2,27.4,58.8,30.8z"/>
		<path class="st2" d="M163.1,57.1c-6.9-6.8-24.4-1.9-15,7.3c9.4,9.2,12.3,14.8,18.2,12C172.1,73.7,168.8,62.7,163.1,57.1z"/>
		<path class="st2" d="M67.1,101.1c-9.2,0-17.7,16.8,2.5,24.1c20.1,7.3,22-8.4,14.3-16.1C76.1,101.5,74.1,101.1,67.1,101.1z"/>
		<path class="st2" d="M145.1,117.2c-10.7,0-23,11.3-12.4,15.7C143.3,137.3,156.1,117.2,145.1,117.2z"/>
		<path class="st3" d="M213.4,120.4c2.1-12.9-17.2-15.1-18.4-3.5C193.5,131.3,211.3,132.9,213.4,120.4z"/>
	</g>
</g>
</svg>
