<?xml version="1.0" encoding="utf-8"?>
<!-- Generator: Adobe Illustrator 19.2.0, SVG Export Plug-In . SVG Version: 6.00 Build 0)  -->
<svg version="1.1" id="Layer_1" xmlns="http://www.w3.org/2000/svg" xmlns:xlink="http://www.w3.org/1999/xlink" x="0px" y="0px"
	 viewBox="0 0 157 144" style="enable-background:new 0 0 157 144;" xml:space="preserve">
<style type="text/css">
	.st0{fill:#BA4743;}
	.st1{fill:#F27456;}
	.st2{fill:#F6B45D;}
</style>
<g>
	<g>
		<path class="st0" d="M122.4,3.7C98.8,15.8,110.6,51.1,139.8,42C173.4,31.5,149.2-10.1,122.4,3.7z"/>
		<path class="st1" d="M129.3,30.7c29.6,34.3,23,101.4-44.9,109.9C10.2,150-25.1,55.7,22.3,23.1C61.2-3.5,97.3-6.3,129.3,30.7z"/>
		<path class="st2" d="M131.5,33c9,11.8,10.7,24.1,3.9,29.6c-6.8,5.5-17.2-4-18.8-16.1c-2.7-21.2-20.1-21.4-30.7-10.1
			C77.6,45.1,63.6,51,60.3,42c-4-10.9,8.9-8.7,13.1-16.8c4.2-8.1-4.7-19.6-20.9-5.5c-16.2,14.1-23.9,1.2-18.8-2.1
			c0,0,16.6-18.1,51.4-14C112.5,6.8,131.5,33,131.5,33z"/>
		<path class="st2" d="M143,98.8c3-11.2-6.9-18.2-19-15c-12,3.2,1.5,22-12.4,24.2c-13.6,2.2-7.3-12.5-23.3-20.3
			c-16-7.7-32.5,10.1-19.1,24.6c13.4,14.5,2.5,28.2-13.8,26.8c0,0,22.9,11.7,55.1-5.3C139.5,118.6,143,98.8,143,98.8z"/>
	</g>
</g>
</svg>
